/*
 * music_library.h
 *
 *  Created on: May 6, 2024
 *      Author: YasinSHV
 */

#ifndef INC_MUSIC_LIBRARY_H_
#define INC_MUSIC_LIBRARY_H_
#include "dictionary.h"

struct Dictionary *playlist = NULL;

void initTonesDictionary() {
    playlist = initDictionary(10);

    // Example tones
    struct Tone super_mario_bros[]={{2637,306},{0,153},{2637,153},{0,153},{2093,153},{2637,153},{0,153},{3136,153},{0,459},{1586,153},{0,459},{2093,153},{0,306},{1586,153},{0,306},{1319,153},{0,306},{1760,153},{0,153},{1976,153},{0,153},{1865,153},{1760,153},{0,153},{1586,204},{2637,204},{3136,204},{3520,153},{0,153},{2794,153},{3136,153},{0,153},{2637,153},{0,153},{2093,153},{2349,153},{1976,153},{0,306},{2093,153},{0,306},{1586,153},{0,306},{1319,153},{0,306},{1760,153},{0,153},{1976,153},{0,153},{1865,153},{1760,153},{0,153},{1586,204},{2637,204},{3136,204},{3520,153},{0,153},{2794,153},{3136,153},{0,153},{2637,153},{0,153},{2093,153},{2349,153},{1976,153},{0,0}};
    struct Tone hedwig_theme[]={{REST,750},{NOTE_D4,374},{NOTE_G4,561},{NOTE_AS4,187},{NOTE_A4,374},{NOTE_G4,750},{NOTE_D5,374},{NOTE_C5,1124},{NOTE_A4,1124},{NOTE_G4,561},{NOTE_AS4,187},{NOTE_A4,374},{NOTE_F4,750},{NOTE_GS4,374},{NOTE_D4,2249},{NOTE_D4,374},{NOTE_G4,561},{NOTE_AS4,187},{NOTE_A4,374},{NOTE_G4,750},{NOTE_D5,374},{NOTE_F5,750},{NOTE_E5,374},{NOTE_DS5,750},{NOTE_B4,374},{NOTE_DS5,561},{NOTE_D5,187},{NOTE_CS5,374},{NOTE_CS4,750},{NOTE_B4,374},{NOTE_G4,2249},{NOTE_AS4,374},{NOTE_D5,750},{NOTE_AS4,374},{NOTE_D5,750},{NOTE_AS4,374},{NOTE_DS5,750},{NOTE_D5,374},{NOTE_CS5,750},{NOTE_A4,374},{NOTE_AS4,561},{NOTE_D5,187},{NOTE_CS5,374},{NOTE_CS4,750},{NOTE_D4,374},{NOTE_D5,1700},{REST,150},{NOTE_AS4,374},{NOTE_D5,750},{NOTE_AS4,374},{NOTE_D5,750},{NOTE_AS4,374},{NOTE_F5,750},{NOTE_E5,374},{NOTE_DS5,750},{NOTE_B4,374},{NOTE_DS5,561},{NOTE_D5,187},{NOTE_CS5,374},{NOTE_CS4,750},{NOTE_AS4,374},{NOTE_G4,2249},{0,0}};
    struct Tone doom[]={{NOTE_E2,133},{NOTE_E2,133},{NOTE_E3,133},{NOTE_E2,133},{NOTE_E2,133},{NOTE_D3,133},{NOTE_E2,133},{NOTE_E2,133},{NOTE_C3,133},{NOTE_E2,133},{NOTE_E2,133},{NOTE_AS2,133},{NOTE_E2,133},{NOTE_E2,133},{NOTE_B2,133},{NOTE_C3,133},{NOTE_E2,133},{NOTE_E2,133},{NOTE_E3,133},{NOTE_E2,133},{NOTE_E2,133},{NOTE_D3,133},{NOTE_E2,133},{NOTE_E2,133},{NOTE_C3,133},{NOTE_E2,133},{NOTE_E2,133},{NOTE_AS2,534},{NOTE_E2,133},{NOTE_E2,133},{NOTE_E3,133},{NOTE_E2,133},{NOTE_E2,133},{NOTE_D3,133},{NOTE_E2,133},{NOTE_E2,133},{NOTE_C3,133},{NOTE_E2,133},{NOTE_E2,133},{NOTE_AS2,133},{NOTE_E2,133},{NOTE_E2,133},{NOTE_B2,133},{NOTE_C3,133},{NOTE_E2,133},{NOTE_E2,133},{NOTE_E3,133},{NOTE_E2,133},{NOTE_E2,133},{NOTE_D3,133},{NOTE_E2,133},{NOTE_E2,133},{NOTE_C3,133},{NOTE_E2,133},{NOTE_E2,133},{NOTE_AS2,534},{NOTE_E2,133},{NOTE_E2,133},{NOTE_E3,133},{NOTE_E2,133},{NOTE_E2,133},{NOTE_D3,133},{NOTE_E2,133},{NOTE_E2,133},{NOTE_C3,133},{NOTE_E2,133},{NOTE_E2,133},{NOTE_AS2,133},{NOTE_E2,133},{NOTE_E2,133},{NOTE_B2,133},{NOTE_C3,133},{NOTE_E2,133},{NOTE_E2,133},{NOTE_E3,133},{NOTE_E2,133},{NOTE_E2,133},{NOTE_D3,133},{NOTE_E2,133},{NOTE_E2,133},{NOTE_C3,133},{NOTE_E2,133},{NOTE_E2,133},{NOTE_AS2,534},{NOTE_E2,133},{NOTE_E2,133},{NOTE_E3,133},{NOTE_E2,133},{NOTE_E2,133},{NOTE_D3,133},{NOTE_E2,133},{NOTE_E2,133},{NOTE_C3,133},{NOTE_E2,133},{NOTE_E2,133},{NOTE_AS2,133},{NOTE_E2,133},{NOTE_E2,133},{NOTE_B2,133},{NOTE_C3,133},{NOTE_E2,133},{NOTE_E2,133},{NOTE_E3,133},{NOTE_E2,133},{NOTE_E2,133},{NOTE_D3,133},{NOTE_E2,133},{NOTE_E2,133},{NOTE_FS3,67},{NOTE_D3,67},{NOTE_B2,67},{NOTE_A3,67},{NOTE_FS3,67},{NOTE_B2,67},{NOTE_D3,67},{NOTE_FS3,67},{NOTE_A3,67},{NOTE_FS3,67},{NOTE_D3,67},{NOTE_B2,67},{NOTE_E2,133},{NOTE_E2,133},{NOTE_E3,133},{NOTE_E2,133},{NOTE_E2,133},{NOTE_D3,133},{NOTE_E2,133},{NOTE_E2,133},{NOTE_C3,133},{NOTE_E2,133},{NOTE_E2,133},{NOTE_AS2,133},{NOTE_E2,133},{NOTE_E2,133},{NOTE_B2,133},{NOTE_C3,133},{NOTE_E2,133},{NOTE_E2,133},{NOTE_E3,133},{NOTE_E2,133},{NOTE_E2,133},{NOTE_D3,133},{NOTE_E2,133},{NOTE_E2,133},{NOTE_C3,133},{NOTE_E2,133},{NOTE_E2,133},{NOTE_AS2,534},{NOTE_E2,133},{NOTE_E2,133},{NOTE_E3,133},{NOTE_E2,133},{NOTE_E2,133},{NOTE_D3,133},{NOTE_E2,133},{NOTE_E2,133},{NOTE_C3,133},{NOTE_E2,133},{NOTE_E2,133},{NOTE_AS2,133},{NOTE_E2,133},{NOTE_E2,133},{NOTE_B2,133},{NOTE_C3,133},{NOTE_E2,133},{NOTE_E2,133},{NOTE_E3,133},{NOTE_E2,133},{NOTE_E2,133},{NOTE_D3,133},{NOTE_E2,133},{NOTE_E2,133},{NOTE_B3,67},{NOTE_G3,67},{NOTE_E3,67},{NOTE_G3,67},{NOTE_B3,67},{NOTE_E4,67},{NOTE_G3,67},{NOTE_B3,67},{NOTE_E4,67},{NOTE_B3,67},{NOTE_G4,67},{NOTE_B4,67},{NOTE_A2,133},{NOTE_A2,133},{NOTE_A3,133},{NOTE_A2,133},{NOTE_A2,133},{NOTE_G3,133},{NOTE_A2,133},{NOTE_A2,133},{NOTE_F3,133},{NOTE_A2,133},{NOTE_A2,133},{NOTE_DS3,133},{NOTE_A2,133},{NOTE_A2,133},{NOTE_E3,133},{NOTE_F3,133},{NOTE_A2,133},{NOTE_A2,133},{NOTE_A3,133},{NOTE_A2,133},{NOTE_A2,133},{NOTE_G3,133},{NOTE_A2,133},{NOTE_A2,133},{NOTE_F3,133},{NOTE_A2,133},{NOTE_A2,133},{NOTE_DS3,534},{NOTE_A2,133},{NOTE_A2,133},{NOTE_A3,133},{NOTE_A2,133},{NOTE_A2,133},{NOTE_G3,133},{NOTE_A2,133},{NOTE_A2,133},{NOTE_F3,133},{NOTE_A2,133},{NOTE_A2,133},{NOTE_DS3,133},{NOTE_A2,133},{NOTE_A2,133},{NOTE_E3,133},{NOTE_F3,133},{NOTE_A2,133},{NOTE_A2,133},{NOTE_A3,133},{NOTE_A2,133},{NOTE_A2,133},{NOTE_G3,133},{NOTE_A2,133},{NOTE_A2,133},{NOTE_A3,67},{NOTE_F3,67},{NOTE_D3,67},{NOTE_A3,67},{NOTE_F3,67},{NOTE_D3,67},{NOTE_C4,67},{NOTE_A3,67},{NOTE_F3,67},{NOTE_A3,67},{NOTE_F3,67},{NOTE_D3,67},{NOTE_E2,133},{NOTE_E2,133},{NOTE_E3,133},{NOTE_E2,133},{NOTE_E2,133},{NOTE_D3,133},{NOTE_E2,133},{NOTE_E2,133},{NOTE_C3,133},{NOTE_E2,133},{NOTE_E2,133},{NOTE_AS2,133},{NOTE_E2,133},{NOTE_E2,133},{NOTE_B2,133},{NOTE_C3,133},{NOTE_E2,133},{NOTE_E2,133},{NOTE_E3,133},{NOTE_E2,133},{NOTE_E2,133},{NOTE_D3,133},{NOTE_E2,133},{NOTE_E2,133},{NOTE_C3,133},{NOTE_E2,133},{NOTE_E2,133},{NOTE_AS2,534},{NOTE_E2,133},{NOTE_E2,133},{NOTE_E3,133},{NOTE_E2,133},{NOTE_E2,133},{NOTE_D3,133},{NOTE_E2,133},{NOTE_E2,133},{NOTE_C3,133},{NOTE_E2,133},{NOTE_E2,133},{NOTE_AS2,133},{NOTE_E2,133},{NOTE_E2,133},{NOTE_B2,133},{NOTE_C3,133},{NOTE_E2,133},{NOTE_E2,133},{NOTE_E3,133},{NOTE_E2,133},{NOTE_E2,133},{NOTE_D3,133},{NOTE_E2,133},{NOTE_E2,133},{NOTE_C3,133},{NOTE_E2,133},{NOTE_E2,133},{NOTE_AS2,534},{NOTE_CS3,133},{NOTE_CS3,133},{NOTE_CS4,133},{NOTE_CS3,133},{NOTE_CS3,133},{NOTE_B3,133},{NOTE_CS3,133},{NOTE_CS3,133},{NOTE_A3,133},{NOTE_CS3,133},{NOTE_CS3,133},{NOTE_G3,133},{NOTE_CS3,133},{NOTE_CS3,133},{NOTE_GS3,133},{NOTE_A3,133},{NOTE_B2,133},{NOTE_B2,133},{NOTE_B3,133},{NOTE_B2,133},{NOTE_B2,133},{NOTE_A3,133},{NOTE_B2,133},{NOTE_B2,133},{NOTE_G3,133},{NOTE_B2,133},{NOTE_B2,133},{NOTE_F3,534},{NOTE_E2,133},{NOTE_E2,133},{NOTE_E3,133},{NOTE_E2,133},{NOTE_E2,133},{NOTE_D3,133},{NOTE_E2,133},{NOTE_E2,133},{NOTE_C3,133},{NOTE_E2,133},{NOTE_E2,133},{NOTE_AS2,133},{NOTE_E2,133},{NOTE_E2,133},{NOTE_B2,133},{NOTE_C3,133},{NOTE_E2,133},{NOTE_E2,133},{NOTE_E3,133},{NOTE_E2,133},{NOTE_E2,133},{NOTE_D3,133},{NOTE_E2,133},{NOTE_E2,133},{NOTE_B3,67},{NOTE_G3,67},{NOTE_E3,67},{NOTE_G3,67},{NOTE_B3,67},{NOTE_E4,67},{NOTE_G3,67},{NOTE_B3,67},{NOTE_E4,67},{NOTE_B3,67},{NOTE_G4,67},{NOTE_B4,67},{NOTE_E2,133},{NOTE_E2,133},{NOTE_E3,133},{NOTE_E2,133},{NOTE_E2,133},{NOTE_D3,133},{NOTE_E2,133},{NOTE_E2,133},{NOTE_C3,133},{NOTE_E2,133},{NOTE_E2,133},{NOTE_AS2,133},{NOTE_E2,133},{NOTE_E2,133},{NOTE_B2,133},{NOTE_C3,133},{NOTE_E2,133},{NOTE_E2,133},{NOTE_E3,133},{NOTE_E2,133},{NOTE_E2,133},{NOTE_D3,133},{NOTE_E2,133},{NOTE_E2,133},{NOTE_C3,133},{NOTE_E2,133},{NOTE_E2,133},{NOTE_AS2,534},{NOTE_E2,133},{NOTE_E2,133},{NOTE_E3,133},{NOTE_E2,133},{NOTE_E2,133},{NOTE_D3,133},{NOTE_E2,133},{NOTE_E2,133},{NOTE_C3,133},{NOTE_E2,133},{NOTE_E2,133},{NOTE_AS2,133},{NOTE_E2,133},{NOTE_E2,133},{NOTE_B2,133},{NOTE_C3,133},{NOTE_E2,133},{NOTE_E2,133},{NOTE_E3,133},{NOTE_E2,133},{NOTE_E2,133},{0,0}};
    struct Tone fur_elise[] = {{NOTE_E5,188},{NOTE_DS5,188},{NOTE_E5,188},{NOTE_DS5,188},{NOTE_E5,188},{NOTE_B4,188},{NOTE_D5,188},{NOTE_C5,188},{NOTE_A4,375},{NOTE_C4,188},{NOTE_E4,188},{NOTE_A4,188},{NOTE_B4,375},{NOTE_E4,188},{NOTE_GS4,188},{NOTE_B4,188},{NOTE_C5,250},{REST,188},{NOTE_E4,188},{NOTE_E5,188},{NOTE_DS5,188},{NOTE_E5,188},{NOTE_DS5,188},{NOTE_E5,188},{NOTE_B4,188},{NOTE_D5,188},{NOTE_C5,188},{NOTE_A4,375},{NOTE_C4,188},{NOTE_E4,188},{NOTE_A4,188},{NOTE_B4,375},{NOTE_E4,188},{NOTE_C5,188},{NOTE_B4,188},{NOTE_A4,750},{REST,250},{NOTE_E5,188},{NOTE_DS5,188},{NOTE_E5,188},{NOTE_DS5,188},{NOTE_E5,188},{NOTE_B4,188},{NOTE_D5,188},{NOTE_C5,188},{NOTE_A4,375},{NOTE_C4,188},{NOTE_E4,188},{NOTE_A4,188},{NOTE_B4,375},{NOTE_E4,188},{NOTE_GS4,188},{NOTE_B4,188},{NOTE_C5,250},{REST,188},{NOTE_E4,188},{NOTE_E5,188},{NOTE_DS5,188},{NOTE_E5,188},{NOTE_DS5,188},{NOTE_E5,188},{NOTE_B4,188},{NOTE_D5,188},{NOTE_C5,188},{NOTE_A4,375},{NOTE_C4,188},{NOTE_E4,188},{NOTE_A4,188},{NOTE_B4,375},{NOTE_E4,188},{NOTE_C5,188},{NOTE_B4,188},{NOTE_A4,250},{REST,188},{NOTE_B4,188},{NOTE_C5,188},{NOTE_D5,188},{NOTE_E5,375},{NOTE_G4,188},{NOTE_F5,188},{NOTE_E5,188},{NOTE_D5,375},{NOTE_F4,188},{NOTE_E5,188},{NOTE_D5,188},{NOTE_C5,375},{NOTE_E4,188},{NOTE_D5,188},{NOTE_C5,188},{NOTE_B4,250},{REST,188},{NOTE_E4,188},{NOTE_E5,188},{REST,188},{REST,188},{NOTE_E5,188},{NOTE_E6,188},{REST,188},{REST,188},{NOTE_DS5,188},{NOTE_E5,188},{REST,188},{REST,188},{NOTE_DS5,188},{NOTE_E5,188},{NOTE_DS5,188},{NOTE_E5,188},{NOTE_DS5,188},{NOTE_E5,188},{NOTE_B4,188},{NOTE_D5,188},{NOTE_C5,188},{NOTE_A4,250},{REST,188},{NOTE_C4,188},{NOTE_E4,188},{NOTE_A4,188},{NOTE_B4,250},{REST,188},{NOTE_E4,188},{NOTE_GS4,188},{NOTE_B4,188},{NOTE_C5,250},{REST,188},{NOTE_E4,188},{NOTE_E5,188},{NOTE_DS5,188},{NOTE_E5,188},{NOTE_DS5,188},{NOTE_E5,188},{NOTE_B4,188},{NOTE_D5,188},{NOTE_C5,188},{NOTE_A4,250},{REST,188},{NOTE_C4,188},{NOTE_E4,188},{NOTE_A4,188},{NOTE_B4,250},{REST,188},{NOTE_E4,188},{NOTE_C5,188},{NOTE_B4,188},{NOTE_A4,250},{REST,188},{NOTE_B4,188},{NOTE_C5,188},{NOTE_D5,188},{NOTE_E5,375},{NOTE_G4,188},{NOTE_F5,188},{NOTE_E5,188},{NOTE_D5,375},{NOTE_F4,188},{NOTE_E5,188},{NOTE_D5,188},{NOTE_C5,375},{NOTE_E4,188},{NOTE_D5,188},{NOTE_C5,188},{NOTE_B4,250},{REST,188},{NOTE_E4,188},{NOTE_E5,188},{REST,188},{REST,188},{NOTE_E5,188},{NOTE_E6,188},{REST,188},{REST,188},{NOTE_DS5,188},{NOTE_E5,188},{REST,188},{REST,188},{NOTE_DS5,188},{NOTE_E5,188},{NOTE_DS5,188},{NOTE_E5,188},{NOTE_DS5,188},{NOTE_E5,188},{NOTE_B4,188},{NOTE_D5,188},{NOTE_C5,188},{NOTE_A4,250},{REST,188},{NOTE_C4,188},{NOTE_E4,188},{NOTE_A4,188},{NOTE_B4,250},{REST,188},{NOTE_E4,188},{NOTE_GS4,188},{NOTE_B4,188},{NOTE_C5,250},{REST,188},{NOTE_E4,188},{NOTE_E5,188},{NOTE_DS5,188},{NOTE_E5,188},{NOTE_DS5,188},{NOTE_E5,188},{NOTE_B4,188},{NOTE_D5,188},{NOTE_C5,188},{NOTE_A4,250},{REST,188},{NOTE_C4,188},{NOTE_E4,188},{NOTE_A4,188},{NOTE_B4,250},{REST,188},{NOTE_E4,188},{NOTE_C5,188},{NOTE_B4,188},{NOTE_A4,250},{REST,188},{NOTE_C5,188},{NOTE_C5,188},{NOTE_C5,188},{NOTE_C5,750},{NOTE_F5,282},{NOTE_E5,94},{NOTE_E5,250},{NOTE_D5,250},{NOTE_AS5,282},{NOTE_A5,94},{NOTE_A5,188},{NOTE_G5,188},{NOTE_F5,188},{NOTE_E5,188},{NOTE_D5,188},{NOTE_C5,188},{NOTE_AS4,250},{NOTE_A4,250},{NOTE_A4,94},{NOTE_G4,94},{NOTE_A4,94},{NOTE_B4,94},{NOTE_C5,750},{NOTE_D5,188},{NOTE_DS5,188},{NOTE_E5,375},{NOTE_E5,188},{NOTE_F5,188},{NOTE_A4,188},{NOTE_C5,750},{NOTE_D5,282},{NOTE_B4,94},{NOTE_C5,94},{NOTE_G5,94},{NOTE_G4,94},{NOTE_G5,94},{NOTE_A4,94},{NOTE_G5,94},{NOTE_B4,94},{NOTE_G5,94},{NOTE_C5,94},{NOTE_G5,94},{NOTE_D5,94},{NOTE_G5,94},{NOTE_E5,94},{NOTE_G5,94},{NOTE_C6,94},{NOTE_B5,94},{NOTE_A5,94},{NOTE_G5,94},{NOTE_F5,94},{NOTE_E5,94},{NOTE_D5,94},{NOTE_G5,94},{NOTE_F5,94},{NOTE_D5,94},{NOTE_C5,94},{NOTE_G5,94},{NOTE_G4,94},{NOTE_G5,94},{NOTE_A4,94},{NOTE_G5,94},{NOTE_B4,94},{NOTE_G5,94},{NOTE_C5,94},{NOTE_G5,94},{NOTE_D5,94},{NOTE_G5,94},{NOTE_E5,94},{NOTE_G5,94},{NOTE_C6,94},{NOTE_B5,94},{NOTE_A5,94},{NOTE_G5,94},{NOTE_F5,94},{NOTE_E5,94},{NOTE_D5,94},{NOTE_G5,94},{NOTE_F5,94},{NOTE_D5,94},{NOTE_E5,94},{NOTE_F5,94},{NOTE_E5,94},{NOTE_DS5,94},{NOTE_E5,94},{NOTE_B4,94},{NOTE_E5,94},{NOTE_DS5,94},{NOTE_E5,94},{NOTE_B4,94},{NOTE_E5,94},{NOTE_DS5,94},{NOTE_E5,375},{NOTE_B4,188},{NOTE_E5,188},{NOTE_DS5,188},{NOTE_E5,375},{NOTE_B4,188},{NOTE_E5,188},{REST,188},{REST,188},{NOTE_DS5,188},{NOTE_E5,188},{REST,188},{REST,188},{NOTE_DS5,188},{NOTE_E5,188},{NOTE_DS5,188},{NOTE_E5,188},{NOTE_B4,188},{NOTE_D5,188},{NOTE_C5,188},{NOTE_A4,250},{REST,188},{NOTE_C4,188},{NOTE_E4,188},{NOTE_A4,188},{NOTE_B4,250},{REST,188},{NOTE_E4,188},{NOTE_GS4,188},{NOTE_B4,188},{NOTE_C5,250},{REST,188},{NOTE_E4,188},{NOTE_E5,188},{NOTE_DS5,188},{NOTE_E5,188},{NOTE_DS5,188},{NOTE_E5,188},{NOTE_B4,188},{NOTE_D5,188},{NOTE_C5,188},{NOTE_A4,250},{REST,188},{NOTE_C4,188},{NOTE_E4,188},{NOTE_A4,188},{NOTE_B4,250},{REST,188},{NOTE_E4,188},{NOTE_C5,188},{NOTE_B4,188},{NOTE_A4,250},{REST,188},{NOTE_B4,188},{NOTE_C5,188},{NOTE_D5,188},{NOTE_E5,375},{NOTE_G4,188},{NOTE_F5,188},{NOTE_E5,188},{NOTE_D5,375},{NOTE_F4,188},{NOTE_E5,188},{NOTE_D5,188},{NOTE_C5,375},{NOTE_E4,188},{NOTE_D5,188},{NOTE_C5,188},{NOTE_B4,250},{REST,188},{NOTE_E4,188},{NOTE_E5,188},{REST,188},{REST,188},{NOTE_E5,188},{NOTE_E6,188},{REST,188},{REST,188},{NOTE_DS5,188},{NOTE_E5,188},{REST,188},{REST,188},{NOTE_DS5,188},{NOTE_E5,188},{NOTE_D5,188},{NOTE_E5,188},{NOTE_DS5,188},{NOTE_E5,188},{NOTE_B4,188},{NOTE_D5,188},{NOTE_C5,188},{NOTE_A4,250},{REST,188},{NOTE_C4,188},{NOTE_E4,188},{NOTE_A4,188},{NOTE_B4,250},{REST,188},{NOTE_E4,188},{NOTE_GS4,188},{NOTE_B4,188},{NOTE_C5,250},{REST,188},{NOTE_E4,188},{NOTE_E5,188},{NOTE_DS5,188},{NOTE_E5,188},{NOTE_DS5,188},{NOTE_E5,188},{NOTE_B4,188},{NOTE_D5,188},{NOTE_C5,188},{NOTE_A4,250},{REST,188},{NOTE_C4,188},{NOTE_E4,188},{NOTE_A4,188},{NOTE_B4,250},{REST,188},{NOTE_E4,188},{NOTE_C5,188},{NOTE_B4,188},{NOTE_A4,250},{REST,188},{REST,188},{REST,250},{NOTE_CS5,1125},{NOTE_D5,750},{NOTE_E5,188},{NOTE_F5,188},{NOTE_F5,750},{NOTE_F5,250},{NOTE_E5,1125},{NOTE_D5,750},{NOTE_C5,188},{NOTE_B4,188},{NOTE_A4,750},{NOTE_A4,250},{NOTE_A4,250},{NOTE_C5,250},{NOTE_B4,250},{NOTE_A4,1125},{NOTE_CS5,1125},{NOTE_D5,750},{NOTE_E5,188},{NOTE_F5,188},{NOTE_F5,750},{NOTE_F5,250},{NOTE_F5,1125},{NOTE_DS5,750},{NOTE_D5,188},{NOTE_C5,188},{NOTE_AS4,750},{NOTE_A4,250},{NOTE_GS4,750},{NOTE_G4,250},{NOTE_A4,1125},{NOTE_B4,750},{REST,250},{NOTE_A3,141},{NOTE_C4,141},{NOTE_E4,141},{NOTE_A4,141},{NOTE_C5,141},{NOTE_E5,141},{NOTE_D5,141},{NOTE_C5,141},{NOTE_B4,141},{NOTE_A4,141},{NOTE_C5,141},{NOTE_E5,141},{NOTE_A5,141},{NOTE_C6,141},{NOTE_E6,141},{NOTE_D6,141},{NOTE_C6,141},{NOTE_B5,141},{NOTE_A4,141},{NOTE_C5,141},{NOTE_E5,141},{NOTE_A5,141},{NOTE_C6,141},{NOTE_E6,141},{NOTE_D6,141},{NOTE_C6,141},{NOTE_B5,141},{NOTE_AS5,141},{NOTE_A5,141},{NOTE_GS5,141},{NOTE_G5,141},{NOTE_FS5,141},{NOTE_F5,141},{NOTE_E5,141},{NOTE_DS5,141},{NOTE_D5,141},{NOTE_CS5,141},{NOTE_C5,141},{NOTE_B4,141},{NOTE_AS4,141},{NOTE_A4,141},{NOTE_GS4,141},{NOTE_G4,141},{NOTE_FS4,141},{NOTE_F4,141},{NOTE_E4,188},{NOTE_DS5,188},{NOTE_E5,188},{NOTE_B4,188},{NOTE_D5,188},{NOTE_C5,188},{NOTE_A4,375},{NOTE_C4,188},{NOTE_E4,188},{NOTE_A4,188},{NOTE_B4,375},{NOTE_E4,188},{NOTE_GS4,188},{NOTE_B4,188},{NOTE_C5,250},{REST,188},{NOTE_E4,188},{NOTE_E5,188},{NOTE_DS5,188},{NOTE_E5,188},{NOTE_DS5,188},{NOTE_E5,188},{NOTE_B4,188},{NOTE_D5,188},{NOTE_C5,188},{NOTE_A4,375},{NOTE_C4,188},{NOTE_E4,188},{NOTE_A4,188},{NOTE_B4,375},{NOTE_E4,188},{NOTE_C5,188},{NOTE_B4,188},{NOTE_A4,375},{REST,375},{REST,375},{NOTE_G4,188},{NOTE_F5,188},{NOTE_E5,188},{NOTE_D5,750},{REST,250},{REST,375},{NOTE_E4,188},{NOTE_D5,188},{NOTE_C5,188},{NOTE_B4,375},{NOTE_E4,188},{NOTE_E5,250},{NOTE_E5,250},{NOTE_E6,375},{NOTE_DS5,188},{NOTE_E5,188},{REST,188},{REST,188},{NOTE_DS5,188},{NOTE_E5,188},{NOTE_DS5,188},{NOTE_E5,188},{NOTE_DS5,188},{NOTE_E5,188},{NOTE_B4,188},{NOTE_D5,188},{NOTE_C5,188},{NOTE_A4,375},{NOTE_C4,188},{NOTE_E4,188},{NOTE_A4,188},{NOTE_B4,375},{NOTE_E4,188},{NOTE_GS4,188},{NOTE_B4,188},{NOTE_C5,250},{REST,188},{NOTE_E4,188},{NOTE_E5,188},{NOTE_DS5,188},{NOTE_E5,188},{NOTE_DS5,188},{NOTE_E5,188},{NOTE_B4,188},{NOTE_D5,188},{NOTE_C5,188},{NOTE_A4,375},{NOTE_C4,188},{NOTE_E4,188},{NOTE_A4,188},{NOTE_B4,375},{NOTE_E4,188},{NOTE_C5,188},{NOTE_B4,188},{NOTE_A4,1125},{0,0}};
    struct Tone tetris[] = {{NOTE_E5, 417}, {NOTE_B4, 208}, {NOTE_C5, 208}, {NOTE_D5, 417}, {NOTE_C5, 208}, {NOTE_B4, 208}, {NOTE_A4, 417}, {NOTE_A4, 208}, {NOTE_C5, 208}, {NOTE_E5, 417}, {NOTE_D5, 208}, {NOTE_C5, 208}, {NOTE_B4, 625}, {NOTE_C5, 208}, {NOTE_D5, 417}, {NOTE_E5, 417}, {NOTE_C5, 417}, {NOTE_A4, 417}, {NOTE_A4, 208}, {NOTE_A4, 417}, {NOTE_B4, 208}, {NOTE_C5, 208}, {NOTE_D5, 625}, {NOTE_F5, 208}, {NOTE_A5, 417}, {NOTE_G5, 208}, {NOTE_F5, 208}, {NOTE_E5, 625}, {NOTE_C5, 208}, {NOTE_E5, 417}, {NOTE_D5, 208}, {NOTE_C5, 208}, {NOTE_B4, 417}, {NOTE_B4, 208}, {NOTE_C5, 208}, {NOTE_D5, 417}, {NOTE_E5, 417}, {NOTE_C5, 417}, {NOTE_A4, 417}, {NOTE_A4, 417}, {REST, 417}, {NOTE_E5, 417}, {NOTE_B4, 208}, {NOTE_C5, 208}, {NOTE_D5, 417}, {NOTE_C5, 208}, {NOTE_B4, 208}, {NOTE_A4, 417}, {NOTE_A4, 208}, {NOTE_C5, 208}, {NOTE_E5, 417}, {NOTE_D5, 208}, {NOTE_C5, 208}, {NOTE_B4, 625}, {NOTE_C5, 208}, {NOTE_D5, 417}, {NOTE_E5, 417}, {NOTE_C5, 417}, {NOTE_A4, 417}, {NOTE_A4, 208}, {NOTE_A4, 417}, {NOTE_B4, 208}, {NOTE_C5, 208}, {NOTE_D5, 625}, {NOTE_F5, 208}, {NOTE_A5, 417}, {NOTE_G5, 208}, {NOTE_F5, 208}, {NOTE_E5, 625}, {NOTE_C5, 208}, {NOTE_E5, 417}, {NOTE_D5, 208}, {NOTE_C5, 208}, {NOTE_B4, 417}, {NOTE_B4, 208}, {NOTE_C5, 208}, {NOTE_D5, 417}, {NOTE_E5, 417}, {NOTE_C5, 417}, {NOTE_A4, 417}, {NOTE_A4, 417}, {REST, 417}, {NOTE_E5, 834}, {NOTE_C5, 834}, {NOTE_D5, 834}, {NOTE_B4, 834}, {NOTE_C5, 834}, {NOTE_A4, 834}, {NOTE_GS4, 834}, {NOTE_B4, 417}, {REST, 208}, {NOTE_E5, 834}, {NOTE_C5, 834}, {NOTE_D5, 834}, {NOTE_B4, 834}, {NOTE_C5, 417}, {NOTE_E5, 417}, {NOTE_A5, 834}, {NOTE_GS5, 834},{NOTE_E5, 417}, {NOTE_B4, 208}, {NOTE_C5, 208}, {NOTE_D5, 417}, {NOTE_C5, 208}, {NOTE_B4, 208}, {NOTE_A4, 417}, {NOTE_A4, 208}, {NOTE_C5, 208}, {NOTE_E5, 417}, {NOTE_D5, 208}, {NOTE_C5, 208}, {NOTE_B4, 625}, {NOTE_C5, 208}, {NOTE_D5, 417}, {NOTE_E5, 417}, {NOTE_C5, 417}, {NOTE_A4, 417}, {NOTE_A4, 208}, {NOTE_A4, 417}, {NOTE_B4, 208}, {NOTE_C5, 208}, {NOTE_D5, 625}, {NOTE_F5, 208}, {NOTE_A5, 417}, {NOTE_G5, 208}, {NOTE_F5, 208}, {NOTE_E5, 625}, {NOTE_C5, 208}, {NOTE_E5, 417}, {NOTE_D5, 208}, {NOTE_C5, 208}, {NOTE_B4, 417}, {NOTE_B4, 208}, {NOTE_C5, 208}, {NOTE_D5, 417}, {NOTE_E5, 417}, {NOTE_C5, 417}, {NOTE_A4, 417}, {NOTE_A4, 417}, {REST, 417}, {NOTE_E5, 417}, {NOTE_B4, 208}, {NOTE_C5, 208}, {NOTE_D5, 417}, {NOTE_C5, 208}, {NOTE_B4, 208}, {NOTE_A4, 417}, {NOTE_A4, 208}, {NOTE_C5, 208}, {NOTE_E5, 417}, {NOTE_D5, 208}, {NOTE_C5, 208}, {NOTE_B4, 625}, {NOTE_C5, 208}, {NOTE_D5, 417}, {NOTE_E5, 417}, {NOTE_C5, 417}, {NOTE_A4, 417}, {NOTE_A4, 208}, {NOTE_A4, 417}, {NOTE_B4, 208}, {NOTE_C5, 208}, {NOTE_D5, 625}, {NOTE_F5, 208}, {NOTE_A5, 417}, {NOTE_G5, 208}, {NOTE_F5, 208}, {NOTE_E5, 625}, {NOTE_C5, 208}, {NOTE_E5, 417}, {NOTE_D5, 208}, {NOTE_C5, 208}, {NOTE_B4, 417}, {NOTE_B4, 208}, {NOTE_C5, 208}, {NOTE_D5, 417}, {NOTE_E5, 417}, {NOTE_C5, 417}, {NOTE_A4, 417}, {NOTE_A4, 417}, {REST, 417}, {NOTE_E5, 834}, {NOTE_C5, 834}, {NOTE_D5, 834}, {NOTE_B4, 834}, {NOTE_C5, 834}, {NOTE_A4, 834}, {NOTE_GS4, 834}, {NOTE_B4, 417}, {REST, 208}, {NOTE_E5, 834}, {NOTE_C5, 834}, {NOTE_D5, 834}, {NOTE_B4, 834}, {NOTE_C5, 417}, {NOTE_E5, 417}, {NOTE_A5, 834}, {NOTE_GS5, 834},{NOTE_E5, 417}, {NOTE_B4, 208}, {NOTE_C5, 208}, {NOTE_D5, 417}, {NOTE_C5, 208}, {NOTE_B4, 208}, {NOTE_A4, 417}, {NOTE_A4, 208}, {NOTE_C5, 208}, {NOTE_E5, 417}, {NOTE_D5, 208}, {NOTE_C5, 208}, {NOTE_B4, 625}, {NOTE_C5, 208}, {NOTE_D5, 417}, {NOTE_E5, 417}, {NOTE_C5, 417}, {NOTE_A4, 417}, {NOTE_A4, 208}, {NOTE_A4, 417}, {NOTE_B4, 208}, {NOTE_C5, 208}, {NOTE_D5, 625}, {NOTE_F5, 208}, {NOTE_A5, 417}, {NOTE_G5, 208}, {NOTE_F5, 208}, {NOTE_E5, 625}, {NOTE_C5, 208}, {NOTE_E5, 417}, {NOTE_D5, 208}, {NOTE_C5, 208}, {NOTE_B4, 417}, {NOTE_B4, 208}, {NOTE_C5, 208}, {NOTE_D5, 417}, {NOTE_E5, 417}, {NOTE_C5, 417}, {NOTE_A4, 417}, {NOTE_A4, 417}, {REST, 417}, {NOTE_E5, 417}, {NOTE_B4, 208}, {NOTE_C5, 208}, {NOTE_D5, 417}, {NOTE_C5, 208}, {NOTE_B4, 208}, {NOTE_A4, 417}, {NOTE_A4, 208}, {NOTE_C5, 208}, {NOTE_E5, 417}, {NOTE_D5, 208}, {NOTE_C5, 208}, {NOTE_B4, 625}, {NOTE_C5, 208}, {NOTE_D5, 417}, {NOTE_E5, 417}, {NOTE_C5, 417}, {NOTE_A4, 417}, {NOTE_A4, 208}, {NOTE_A4, 417}, {NOTE_B4, 208}, {NOTE_C5, 208}, {NOTE_D5, 625}, {NOTE_F5, 208}, {NOTE_A5, 417}, {NOTE_G5, 208}, {NOTE_F5, 208}, {NOTE_E5, 625}, {NOTE_C5, 208}, {NOTE_E5, 417}, {NOTE_D5, 208}, {NOTE_C5, 208}, {NOTE_B4, 417}, {NOTE_B4, 208}, {NOTE_C5, 208}, {NOTE_D5, 417}, {NOTE_E5, 417}, {NOTE_C5, 417}, {NOTE_A4, 417}, {NOTE_A4, 417}, {REST, 417}, {NOTE_E5, 834}, {NOTE_C5, 834}, {NOTE_D5, 834}, {NOTE_B4, 834}, {NOTE_C5, 834}, {NOTE_A4, 834}, {NOTE_GS4, 834}, {NOTE_B4, 417}, {REST, 208}, {NOTE_E5, 834}, {NOTE_C5, 834}, {NOTE_D5, 834}, {NOTE_B4, 834}, {NOTE_C5, 417}, {NOTE_E5, 417}, {NOTE_A5, 834}, {NOTE_GS5, 834},{0,0}};
    struct Tone tokyo_drift[]={{NOTE_AS4,375},{REST,375},{NOTE_AS4,375},{REST,375},{NOTE_AS4,375},{REST,375},{NOTE_AS4,375},{REST,375},{NOTE_AS4,500},{NOTE_B4,500},{NOTE_DS5,375},{NOTE_AS4,375},{REST,375},{NOTE_AS4,375},{REST,375},{NOTE_AS4,375},{NOTE_B4,500},{NOTE_DS5,500},{NOTE_AS4,375},{REST,375},{NOTE_AS4,375},{REST,375},{NOTE_AS4,375},{NOTE_B4,500},{NOTE_DS5,500},{NOTE_AS4,375},{REST,375},{NOTE_AS4,375},{REST,375},{NOTE_AS4,375},{NOTE_B4,500},{NOTE_DS5,500},{NOTE_AS4,375},{REST,375},{NOTE_AS4,375},{REST,375},{NOTE_AS4,375},{NOTE_B4,500},{NOTE_DS5,500},{NOTE_AS4,375},{REST,375},{NOTE_F5,375},{REST,375},{NOTE_F5,375},{REST,375},{NOTE_GS5,500},{NOTE_FS5,500},{NOTE_F5,500},{NOTE_AS4,375},{REST,375},{NOTE_AS4,375},{REST,375},{NOTE_GS5,500},{NOTE_FS5,500},{NOTE_F5,500},{NOTE_AS4,375},{REST,375},{NOTE_AS4,375},{REST,375},{NOTE_AS4,375},{NOTE_B4,500},{NOTE_DS5,500},{NOTE_AS4,375},{REST,375},{NOTE_AS4,375},{REST,375},{NOTE_AS4,375},{NOTE_B4,500},{NOTE_DS5,500},{NOTE_AS4,375},{REST,375},{REST,0},{REST,0},{NOTE_AS4,375},{REST,375},{NOTE_AS4,375},{REST,375},{NOTE_AS4,375},{REST,375},{NOTE_AS4,375},{REST,375},{NOTE_AS4,500},{NOTE_B4,500},{NOTE_DS5,375},{NOTE_AS4,375},{REST,375},{NOTE_AS4,375},{REST,375},{NOTE_AS4,375},{NOTE_B4,500},{NOTE_DS5,500},{NOTE_AS4,375},{REST,375},{NOTE_AS4,375},{REST,375},{NOTE_AS4,375},{NOTE_B4,500},{NOTE_DS5,500},{NOTE_AS4,375},{REST,375},{NOTE_AS4,375},{REST,375},{NOTE_AS4,375},{NOTE_B4,500},{NOTE_DS5,500},{NOTE_AS4,375},{REST,375},{NOTE_AS4,375},{REST,375},{NOTE_AS4,375},{NOTE_B4,500},{NOTE_DS5,500},{NOTE_AS4,375},{REST,375},{NOTE_F5,375},{REST,375},{NOTE_F5,375},{REST,375},{NOTE_GS5,500},{NOTE_FS5,500},{NOTE_F5,500},{NOTE_AS4,375},{REST,375},{NOTE_AS4,375},{REST,375},{NOTE_GS5,500},{NOTE_FS5,500},{NOTE_F5,500},{NOTE_AS4,375},{REST,375},{NOTE_AS4,375},{REST,375},{NOTE_AS4,375},{NOTE_B4,500},{NOTE_DS5,500},{NOTE_AS4,375},{REST,375},{NOTE_AS4,375},{REST,375},{NOTE_AS4,375},{NOTE_B4,500},{NOTE_DS5,500},{NOTE_AS4,375},{REST,375},{REST,0},{REST,0},{NOTE_AS4,375},{REST,375},{NOTE_AS4,375},{REST,375},{NOTE_AS4,375},{REST,375},{NOTE_AS4,375},{REST,375},{NOTE_AS4,500},{NOTE_B4,500},{NOTE_DS5,375},{NOTE_AS4,375},{REST,375},{NOTE_AS4,375},{REST,375},{NOTE_AS4,375},{NOTE_B4,500},{NOTE_DS5,500},{NOTE_AS4,375},{REST,375},{NOTE_AS4,375},{REST,375},{NOTE_AS4,375},{NOTE_B4,500},{NOTE_DS5,500},{NOTE_AS4,375},{REST,375},{NOTE_AS4,375},{REST,375},{NOTE_AS4,375},{NOTE_B4,500},{NOTE_DS5,500},{NOTE_AS4,375},{REST,375},{NOTE_AS4,375},{REST,375},{NOTE_AS4,375},{NOTE_B4,500},{NOTE_DS5,500},{NOTE_AS4,375},{REST,375},{NOTE_F5,375},{REST,375},{NOTE_F5,375},{REST,375},{NOTE_GS5,500},{NOTE_FS5,500},{NOTE_F5,500},{NOTE_AS4,375},{REST,375},{NOTE_AS4,375},{REST,375},{NOTE_GS5,500},{NOTE_FS5,500},{NOTE_F5,500},{NOTE_AS4,375},{REST,375},{NOTE_AS4,375},{REST,375},{NOTE_AS4,375},{NOTE_B4,500},{NOTE_DS5,500},{NOTE_AS4,375},{REST,375},{NOTE_AS4,375},{REST,375},{NOTE_AS4,375},{NOTE_B4,500},{NOTE_DS5,500},{NOTE_AS4,375},{REST,375},{REST,0},{REST,0}};
    // Insert tones into dictionary
    insert(playlist, "super_mario_bros", super_mario_bros, sizeof(super_mario_bros) / sizeof(struct Tone));
    insert(playlist, "hedwig_theme", hedwig_theme, sizeof(hedwig_theme) / sizeof(struct Tone));
    insert(playlist, "doom", doom, sizeof(doom) / sizeof(struct Tone));
    insert(playlist, "fur_elise", fur_elise, sizeof(fur_elise) / sizeof(struct Tone));
    insert(playlist, "tetris", tetris, sizeof(tetris) / sizeof(struct Tone));
    insert(playlist, "tokyo_drift", tokyo_drift, sizeof(tokyo_drift) / sizeof(struct Tone));
}


#endif /* INC_MUSIC_LIBRARY_H_ */
